HIERARCHY
ROOT Hips
{
	OFFSET 0.000000 89.005402 0.000000
	CHANNELS 6 Xposition Yposition Zposition Xrotation Yrotation Zrotation
	JOINT Spine
	{
		OFFSET 0.116900 10.681000 0.373400
		CHANNELS 3 Xrotation Yrotation Zrotation
		JOINT Spine1
		{
			OFFSET 0.000000 13.840401 0.053500
			CHANNELS 3 Xrotation Yrotation Zrotation
			JOINT Spine2
			{
				OFFSET 0.000000 14.712700 -0.366200
				CHANNELS 3 Xrotation Yrotation Zrotation
				JOINT Neck
				{
					OFFSET 0.000000 35.415497 -3.314200
					CHANNELS 3 Xrotation Yrotation Zrotation
					JOINT Head
					{
						OFFSET 0.000000 16.899200 1.218300
						CHANNELS 3 Xrotation Yrotation Zrotation
						JOINT HeadTop_End
						{
							OFFSET 0.000000 22.206207 2.192500
							CHANNELS 3 Xrotation Yrotation Zrotation
							End Site
							{
								OFFSET 0.000000 22.314178 0.000000
							}
						}
					}
				}
				JOINT LeftShoulder
				{
					OFFSET 12.896400 26.716293 -4.548400
					CHANNELS 3 Xrotation Yrotation Zrotation
					JOINT LeftArm
					{
						OFFSET 19.027000 -4.857010 -1.718400
						CHANNELS 3 Xrotation Yrotation Zrotation
						JOINT LeftForeArm
						{
							OFFSET 24.179897 0.000000 0.000000
							CHANNELS 3 Xrotation Yrotation Zrotation
							JOINT LeftHand
							{
								OFFSET 27.156403 0.000000 0.000000
								CHANNELS 3 Xrotation Yrotation Zrotation
								JOINT LeftHandIndex1
								{
									OFFSET 16.441200 0.000000 0.000000
									CHANNELS 3 Xrotation Yrotation Zrotation
									JOINT LeftHandIndex2
									{
										OFFSET 4.821899 0.000000 0.000000
										CHANNELS 3 Xrotation Yrotation Zrotation
										JOINT LeftHandIndex3
										{
											OFFSET 6.386497 0.000000 0.000000
											CHANNELS 3 Xrotation Yrotation Zrotation
											JOINT LeftHandIndex4
											{
												OFFSET 5.188988 0.000000 0.000000
												CHANNELS 3 Xrotation Yrotation Zrotation
												End Site
												{
													OFFSET -0.178703 5.185913 0.000177
												}
											}
										}
									}
								}
								JOINT LeftHandThumb1
								{
									OFFSET 6.534897 -5.032593 5.900300
									CHANNELS 3 Xrotation Yrotation Zrotation
									JOINT LeftHandThumb2
									{
										OFFSET 3.818176 -2.204422 2.204423
										CHANNELS 3 Xrotation Yrotation Zrotation
										JOINT LeftHandThumb3
										{
											OFFSET 3.252098 -1.877594 1.877601
											CHANNELS 3 Xrotation Yrotation Zrotation
											JOINT LeftHandThumb4
											{
												OFFSET 5.251778 -3.032120 3.032117
												CHANNELS 3 Xrotation Yrotation Zrotation
												End Site
												{
													OFFSET 0.000023 6.780014 0.000000
												}
											}
										}
									}
								}
							}
						}
					}
				}
				JOINT RightShoulder
				{
					OFFSET -12.896300 26.716293 -4.548400
					CHANNELS 3 Xrotation Yrotation Zrotation
					JOINT RightArm
					{
						OFFSET -19.027000 -4.857010 -1.718400
						CHANNELS 3 Xrotation Yrotation Zrotation
						JOINT RightForeArm
						{
							OFFSET -24.179897 0.000000 0.000000
							CHANNELS 3 Xrotation Yrotation Zrotation
							JOINT RightHand
							{
								OFFSET -27.156403 0.000000 0.000000
								CHANNELS 3 Xrotation Yrotation Zrotation
								JOINT RightHandThumb1
								{
									OFFSET -6.591202 -4.852203 5.988100
									CHANNELS 3 Xrotation Yrotation Zrotation
									JOINT RightHandThumb2
									{
										OFFSET -3.818176 -2.204422 2.204423
										CHANNELS 3 Xrotation Yrotation Zrotation
										JOINT RightHandThumb3
										{
											OFFSET -3.252098 -1.877594 1.877601
											CHANNELS 3 Xrotation Yrotation Zrotation
											JOINT RightHandThumb4
											{
												OFFSET -5.251778 -3.032120 3.032117
												CHANNELS 3 Xrotation Yrotation Zrotation
												End Site
												{
													OFFSET -0.000023 6.780014 0.000000
												}
											}
										}
									}
								}
								JOINT RightHandIndex1
								{
									OFFSET -16.029404 0.000000 0.000000
									CHANNELS 3 Xrotation Yrotation Zrotation
									JOINT RightHandIndex2
									{
										OFFSET -5.213303 0.000000 0.000000
										CHANNELS 3 Xrotation Yrotation Zrotation
										JOINT RightHandIndex3
										{
											OFFSET -6.386528 0.000000 0.000000
											CHANNELS 3 Xrotation Yrotation Zrotation
											JOINT RightHandIndex4
											{
												OFFSET -5.189026 0.000000 0.000000
												CHANNELS 3 Xrotation Yrotation Zrotation
												End Site
												{
													OFFSET 0.236702 5.183624 0.001972
												}
											}
										}
									}
								}
							}
						}
					}
				}
			}
		}
	}
	JOINT LeftUpLeg
	{
		OFFSET 14.073000 -7.904099 -1.463000
		CHANNELS 3 Xrotation Yrotation Zrotation
		JOINT LeftLeg
		{
			OFFSET -0.109806 -34.073280 4.093200
			CHANNELS 3 Xrotation Yrotation Zrotation
			JOINT LeftFoot
			{
				OFFSET 0.109806 -29.899420 -6.319000
				CHANNELS 3 Xrotation Yrotation Zrotation
				JOINT LeftToeBase
				{
					OFFSET 1.551100 -14.988700 20.535801
					CHANNELS 3 Xrotation Yrotation Zrotation
					JOINT LeftToe_End
					{
						OFFSET 0.221200 0.570800 13.248301
						CHANNELS 3 Xrotation Yrotation Zrotation
						End Site
						{
							OFFSET 0.000000 13.262435 0.000000
						}
					}
				}
			}
		}
	}
	JOINT RightUpLeg
	{
		OFFSET -13.839300 -7.904099 -1.463000
		CHANNELS 3 Xrotation Yrotation Zrotation
		JOINT RightLeg
		{
			OFFSET 0.109694 -34.073219 4.093300
			CHANNELS 3 Xrotation Yrotation Zrotation
			JOINT RightFoot
			{
				OFFSET -0.109694 -29.899384 -6.319200
				CHANNELS 3 Xrotation Yrotation Zrotation
				JOINT RightToeBase
				{
					OFFSET -1.551100 -14.988700 20.535801
					CHANNELS 3 Xrotation Yrotation Zrotation
					JOINT RightToe_End
					{
						OFFSET -0.221200 0.570900 13.248299
						CHANNELS 3 Xrotation Yrotation Zrotation
						End Site
						{
							OFFSET 0.000000 13.262440 0.000000
						}
					}
				}
			}
		}
	}
}
MOTION
Frames: 8
Frame Time: 0.033333
-0.000497 70.637474 31.350277 -3.397048 -30.839817 -1.907804 23.640922 5.797371 -5.840582 0.998536 0.925384 -0.789264 1.001919 0.912747 -0.812258 4.607722 4.326179 -5.516594 4.169116 10.797903 -7.304373 -0.000002 -0.000000 -0.000000 2.128945 2.085918 -7.869971 -37.624080 -17.605453 -56.167453 0.000016 -127.941259 0.000021 15.119727 0.206010 12.207550 8.149249 6.763910 -100.644074 9.380665 6.413246 -111.345409 8.149246 6.763908 -100.644074 0.000001 0.000001 0.000000 22.112876 14.183671 -23.763925 34.105429 50.688586 3.889594 11.578198 34.898619 6.131088 0.000002 0.000002 0.000001 -0.961040 7.532605 -4.640267 -45.502304 36.546529 78.174855 0.000028 116.699246 -0.000039 -4.508134 16.886548 -16.911106 24.135088 -7.619435 9.651685 56.104437 -18.245689 13.101076 2.228490 -35.093942 -11.388790 -0.000002 -0.000001 -0.000001 8.943556 -6.656917 106.727320 9.724429 -6.372003 113.601878 9.724427 -6.372014 113.601878 0.000000 -0.000003 -0.000000 -48.052105 1.405640 30.393891 43.533659 -9.996508 6.892470 15.465165 0.990642 -24.709329 -7.709703 -0.000008 0.000006 0.000000 0.000001 -0.000000 -13.650500 -7.779122 -28.626646 60.239912 5.054516 -6.247957 -30.642602 -10.747423 28.955118 -11.071670 0.000011 0.000001 -0.000000 -0.000001 -0.000000 
-1.035254 71.314896 29.096642 -2.648803 -28.845658 0.016588 21.989290 6.232619 -4.238558 1.787197 0.953019 -1.412731 1.799350 0.921849 -1.424255 4.502226 4.236561 -5.930105 4.404981 9.601351 -6.890294 -0.000000 -0.000000 0.000000 2.309280 2.192071 -8.243031 -35.265377 -17.544799 -57.918010 0.000018 -128.712893 0.000019 15.176633 0.256511 11.802108 8.149248 6.763909 -100.644074 9.380662 6.413247 -111.345416 8.149247 6.763905 -100.644074 -0.000000 -0.000001 -0.000000 22.112879 14.183671 -23.763929 34.105433 50.688579 3.889592 11.578192 34.898623 6.131085 -0.000001 0.000002 0.000001 -1.173775 7.630672 -4.858022 -44.008750 36.420440 78.007939 0.000030 117.382005 -0.000039 -4.400372 16.553139 -16.351299 24.135090 -7.619433 9.651684 56.104431 -18.245689 13.101076 2.228493 -35.093942 -11.388793 0.000000 -0.000003 0.000004 8.943557 -6.656920 106.727320 9.724427 -6.372000 113.601885 9.724428 -6.372016 113.601878 0.000001 -0.000000 -0.000000 -47.808814 3.028266 28.814666 37.296699 -9.917536 5.728339 19.823702 -1.110572 -22.321997 -5.990054 0.001525 -0.360458 0.000000 0.000000 0.000000 -12.314077 -9.274210 -27.869916 57.382557 2.861739 -4.803924 -34.694079 -10.945236 26.294507 -8.213952 0.000025 0.000001 0.000000 0.000001 -0.000000 
-1.745156 72.140030 26.726398 -2.151734 -26.530195 1.623346 20.897637 5.915538 -2.535314 2.211538 0.887208 -1.966169 2.231001 0.836167 -1.970498 4.580823 4.109361 -6.061221 4.663513 8.644632 -6.548724 -0.000002 -0.000000 0.000000 2.475257 2.170814 -8.541703 -34.014718 -17.508780 -59.023476 0.000034 -128.811603 0.000041 15.365919 0.151704 11.577825 8.149250 6.763907 -100.644067 9.380665 6.413248 -111.345409 8.149245 6.763909 -100.644067 0.000000 0.000001 0.000002 22.112877 14.183668 -23.763927 34.105426 50.688589 3.889597 11.578193 34.898616 6.131083 -0.000002 -0.000002 0.000000 -1.310787 7.817236 -4.990685 -43.695199 36.265726 77.415065 0.000009 117.389969 -0.000004 -4.992958 16.036763 -15.840438 24.135090 -7.619435 9.651683 56.104431 -18.245688 13.101078 2.228491 -35.093939 -11.388789 -0.000001 -0.000001 0.000001 8.943557 -6.656921 106.727320 9.724430 -6.372004 113.601878 9.724426 -6.372015 113.601878 0.000001 -0.000000 0.000000 -46.809670 4.529169 26.625223 32.177684 -10.025113 4.368358 21.531796 -4.230627 -19.979309 -3.547258 0.092168 -2.798693 0.000000 0.000000 -0.000000 -12.469754 -10.437967 -27.546177 55.923977 1.214817 -3.243216 -36.571428 -10.508270 23.880898 -4.050026 0.000011 0.000010 -0.000000 -0.000001 -0.000000 
-2.038593 73.234535 24.431541 -1.950343 -24.675407 2.503577 20.817985 5.169585 -1.405166 2.094795 0.770532 -2.066453 2.114564 0.712673 -2.071487 4.840915 3.939113 -5.926377 4.833648 8.042293 -6.682787 0.000000 -0.000000 0.000000 2.628212 1.955425 -8.727821 -34.006938 -17.483370 -59.617197 -0.000003 -128.211106 -0.000012 15.849481 -0.314672 11.827266 8.149250 6.763908 -100.644067 9.380667 6.413248 -111.345409 8.149247 6.763909 -100.644067 -0.000003 0.000001 -0.000000 22.112877 14.183669 -23.763929 34.105423 50.688589 3.889598 11.578193 34.898619 6.131085 0.000001 -0.000001 -0.000001 -1.456911 7.900823 -5.140736 -44.045353 36.290803 76.872638 0.000043 117.066560 -0.000034 -5.621361 15.627444 -15.836007 24.135092 -7.619436 9.651682 56.104427 -18.245693 13.101079 2.228493 -35.093942 -11.388802 0.000001 0.000001 -0.000002 8.943556 -6.656924 106.727320 9.724429 -6.372004 113.601871 9.724431 -6.372017 113.601878 0.000000 -0.000000 -0.000000 -45.239311 5.480732 24.595520 31.353594 -10.363056 3.491533 19.652375 -7.152204 -20.130897 -5.311211 0.119142 -1.456771 -0.000000 -0.000002 0.000000 -13.328797 -11.089808 -26.952761 54.779934 -0.169245 -2.003419 -36.281688 -9.695955 21.952184 -1.939892 0.000033 0.000002 -0.000000 0.000004 0.000000 
-1.928771 74.621872 22.303278 -1.705920 -24.225563 2.576929 21.440573 4.634181 -0.925440 1.715819 0.678076 -1.743708 1.731972 0.628224 -1.752453 5.032336 3.785815 -5.672284 4.789452 7.832713 -7.342260 -0.000003 0.000000 0.000000 2.739759 1.628556 -8.782399 -35.063350 -17.369176 -59.818373 0.000014 -127.192493 0.000016 16.122293 -0.799692 12.492415 8.149250 6.763910 -100.644074 9.380668 6.413248 -111.345409 8.149246 6.763907 -100.644074 0.000001 0.000000 0.000002 22.112876 14.183669 -23.763929 34.105429 50.688586 3.889600 11.578192 34.898616 6.131080 -0.000000 0.000001 -0.000000 -1.539455 7.716914 -5.256351 -44.855608 36.724524 76.936050 0.000001 116.896857 -0.000004 -5.725382 15.461503 -16.001135 24.135085 -7.619435 9.651689 56.104427 -18.245694 13.101079 2.228491 -35.093942 -11.388797 -0.000002 -0.000002 -0.000004 8.943554 -6.656925 106.727320 9.724431 -6.372003 113.601885 9.724421 -6.372015 113.601885 -0.000001 -0.000002 -0.000000 -44.014661 5.841983 22.932717 37.678517 -9.822191 3.376931 12.486284 -7.946818 -19.077186 -7.430586 -0.002475 0.022472 0.000000 0.000002 0.000000 -14.750880 -10.782550 -25.767563 53.299753 -1.296464 -1.093700 -33.765791 -8.597083 20.481931 -0.756012 -0.000004 -0.000001 -0.000000 -0.000002 0.000000 
-1.526590 76.263931 20.332769 -0.911035 -25.629310 2.121270 21.811140 4.656496 -0.796521 1.522029 0.653739 -1.290624 1.534693 0.619127 -1.301298 4.932075 3.732727 -5.435516 4.544830 8.086948 -8.291973 -0.000003 0.000000 -0.000000 2.734960 1.445487 -8.693349 -36.712926 -17.128386 -59.678471 -0.000023 -126.246020 -0.000001 15.600178 -0.782642 12.949069 8.149247 6.763910 -100.644074 9.380664 6.413245 -111.345402 8.149247 6.763909 -100.644067 -0.000001 -0.000001 0.000004 22.112874 14.183672 -23.763927 34.105429 50.688586 3.889598 11.578188 34.898623 6.131084 -0.000001 -0.000002 -0.000000 -1.411643 7.341891 -5.172850 -46.268268 37.654409 77.751629 0.000006 117.082106 -0.000004 -5.973962 15.481804 -15.815213 24.135092 -7.619438 9.651682 56.104431 -18.245693 13.101078 2.228490 -35.093942 -11.388789 0.000001 0.000000 0.000002 8.943556 -6.656923 106.727320 9.724427 -6.372002 113.601885 9.724424 -6.372016 113.601871 -0.000000 0.000002 0.000001 -42.434954 6.456604 21.926874 46.851420 -8.475051 3.320233 3.409681 -7.418807 -16.021981 -9.311043 -0.012038 0.112554 -0.000000 -0.000000 0.000000 -16.705628 -10.091937 -23.721821 50.277822 -1.768050 -0.445242 -29.904938 -7.124344 18.658004 -0.290805 -0.000022 -0.000004 0.000000 -0.000002 -0.000000 
-1.003267 77.986855 18.473558 0.656088 -28.598791 1.566939 21.210674 5.047319 -0.733561 1.658703 0.681692 -0.908404 1.668651 0.661712 -0.917889 4.608886 3.838523 -5.355226 4.196741 8.936625 -9.319154 -0.000001 -0.000000 -0.000000 2.579896 1.633240 -8.500421 -38.335950 -16.702037 -59.131147 -0.000036 -125.817357 -0.000043 14.436059 -0.053935 12.695154 8.149251 6.763911 -100.644067 9.380662 6.413249 -111.345409 8.149247 6.763909 -100.644067 -0.000000 -0.000002 -0.000000 22.112874 14.183670 -23.763931 34.105433 50.688586 3.889598 11.578190 34.898623 6.131084 -0.000000 -0.000001 -0.000000 -1.043258 7.145730 -4.806849 -48.286231 39.003116 78.994286 0.000003 117.250647 -0.000005 -7.219049 15.497127 -15.250380 24.135090 -7.619435 9.651682 56.104427 -18.245693 13.101081 2.228491 -35.093942 -11.388797 0.000001 0.000001 -0.000004 8.943556 -6.656922 106.727320 9.724431 -6.372003 113.601885 9.724425 -6.372017 113.601878 0.000000 -0.000002 -0.000000 -39.698060 7.724156 21.601527 53.300522 -7.386257 2.752934 -3.919427 -6.962265 -13.171956 -12.263734 -0.038657 0.292301 0.000000 -0.000002 -0.000000 -19.581157 -9.576185 -20.970609 46.122461 -0.911950 0.017507 -25.198330 -5.104203 15.981389 -0.156582 -0.000007 0.000001 -0.000000 0.000000 -0.000000 
-0.610209 79.357956 16.652382 2.750027 -32.432655 1.320110 19.623123 5.387961 -0.722251 1.972612 0.718444 -0.610775 1.980252 0.709308 -0.616334 4.307443 4.098005 -5.511974 3.719735 10.400006 -10.213261 0.000002 0.000001 -0.000000 2.330993 2.181989 -8.276327 -39.700741 -16.081037 -58.042463 0.000019 -126.053614 0.000008 13.168996 1.350105 11.743948 8.149251 6.763909 -100.644074 9.380662 6.413248 -111.345409 8.149248 6.763906 -100.644067 0.000001 -0.000004 -0.000001 22.112877 14.183669 -23.763934 34.105433 50.688596 3.889600 11.578189 34.898616 6.131086 -0.000000 -0.000002 -0.000002 -0.420190 7.354003 -4.155100 -51.034262 40.411767 80.355270 -0.000024 116.982112 0.000028 -9.330920 15.148323 -14.668724 24.135090 -7.619431 9.651681 56.104427 -18.245693 13.101080 2.228485 -35.093942 -11.388802 -0.000001 0.000001 -0.000002 8.943557 -6.656920 106.727320 9.724425 -6.372001 113.601878 9.724425 -6.372018 113.601871 0.000000 -0.000002 0.000001 -36.122285 9.616188 21.679710 55.466744 -6.962023 1.749723 -9.902115 -6.078346 -10.907049 -13.742886 -0.051779 0.391950 -0.000000 -0.000000 -0.000000 -23.331566 -8.618158 -18.778050 43.192416 2.139823 0.688249 -21.199049 -4.088827 16.378884 -0.473655 -0.000027 0.000004 -0.000000 0.000002 -0.000000 
